<?xml version="1.0" encoding="utf-8"?>
<!-- Generator: Adobe Illustrator 28.0.0, SVG Export Plug-In . SVG Version: 6.00 Build 0)  -->
<svg version="1.1" id="Layer_1" xmlns="http://www.w3.org/2000/svg" xmlns:xlink="http://www.w3.org/1999/xlink" x="0px" y="0px"
	 viewBox="0 0 220 27.5" style="enable-background:new 0 0 220 27.5;" xml:space="preserve">
<style type="text/css">
	.st0{fill:#E8D6E9;}
	.st1{font-family:'Ebrima';}
	.st2{font-size:21.41px;}
	.st3{fill:#ED1C24;}
	.st4{fill:#ED1C24;stroke:#231F20;stroke-miterlimit:10;}
	.st5{fill:none;stroke:#231F20;stroke-miterlimit:10;}
	.st6{fill:#A25288;stroke:#231F20;stroke-miterlimit:10;}
	.st7{fill:#231F20;}
	.st8{fill:#488FCD;stroke:#231F20;stroke-miterlimit:10;}
	.st9{fill:#39B54A;stroke:#231F20;stroke-miterlimit:10;}
	.st10{fill:#00AEEF;stroke:#231F20;stroke-miterlimit:10;}
	.st11{fill:#F9ED32;stroke:#231F20;stroke-miterlimit:10;}
</style>
<text transform="matrix(0.97 0 0 1 37.0801 20.71)" class="st0 st1 st2">24702 Regal Robots</text>
<g id="Layer_3">
	<path class="st3" d="M23.4,11.4l1.3,2.9c0.4,0.8,0.8,1.7,0.8,2.6c0,0.3,0,0.6,0.1,0.9c0.2,0.4,0.6,0.6,0.9,0.9
		c0.7,0.6,1.2,1.5,0.9,2.4c-0.1,0.4-0.4,0.7-0.4,1.1c0.1,0.3,0.4,0.6,0.6,0.8c0.4,0.4,0.8,0.8,1,1.2c0.2,0.3,0.3,0.7,0.1,0.9
		c-0.2,0.2-0.4,0.2-0.7,0.2c-0.8-0.1-1.5-0.2-2.3-0.5c-0.5-0.2-1.1-0.5-1.6-0.4c-0.6,0.1-1.2,0.8-1.9,0.6c-0.6-0.1-0.9-0.9-1.5-0.9
		c-0.4,0-0.6,0.2-0.9,0.4c-0.8,0.5-1.8,0.6-2.7,0.4s-1.8-0.5-2.8-0.6c-0.5-0.1-1.1-0.1-1.5,0.2c-0.2,0.2-0.5,0.5-0.8,0.5
		c-0.5,0-0.8-0.8-1.4-0.7c-0.4,0-0.6,0.5-0.9,0.8c-0.4,0.4-1,0.5-1.5,0.3s-1-0.5-1.4-0.9c-0.2-0.1-0.4-0.3-0.6-0.3
		c-0.5,0-0.7,0.6-0.9,1.1c-0.4-1.1-1.3-5.4-1.5-6.6"/>
	<path class="st4" d="M23.4,11.4l1.3,2.9c0.4,0.8,0.8,1.7,0.8,2.6c0,0.3,0,0.6,0.1,0.9c0.2,0.4,0.6,0.6,0.9,0.9
		c0.7,0.6,1.2,1.5,0.9,2.4c-0.1,0.4-0.4,0.7-0.4,1.1c0.1,0.3,0.4,0.6,0.6,0.8c0.4,0.4,0.8,0.8,1,1.2c0.2,0.3,0.3,0.7,0.1,0.9
		c-0.2,0.2-0.4,0.2-0.7,0.2c-0.8-0.1-1.5-0.2-2.3-0.5c-0.5-0.2-1.1-0.5-1.6-0.4c-0.6,0.1-1.2,0.8-1.9,0.6c-0.6-0.1-0.9-0.9-1.5-0.9
		c-0.4,0-0.6,0.2-0.9,0.4c-0.8,0.5-1.8,0.6-2.7,0.4s-1.8-0.5-2.8-0.6c-0.5-0.1-1.1-0.1-1.5,0.2c-0.2,0.2-0.5,0.5-0.8,0.5
		c-0.5,0-0.8-0.8-1.4-0.7c-0.4,0-0.6,0.5-0.9,0.8c-0.4,0.4-1,0.5-1.5,0.3s-1-0.5-1.4-0.9c-0.2-0.1-0.4-0.3-0.6-0.3
		c-0.5,0-0.7,0.6-0.9,1.1c-0.4-1.1-1.3-5.4-1.5-6.6"/>
	<path class="st5" d="M23.4,11.4l1.3,2.9c0.4,0.8,0.8,1.7,0.8,2.6c0,0.3,0,0.6,0.1,0.9c0.2,0.4,0.6,0.6,0.9,0.9
		c0.7,0.6,1.2,1.5,0.9,2.4c-0.1,0.4-0.4,0.7-0.4,1.1c0.1,0.3,0.4,0.6,0.6,0.8c0.4,0.4,0.8,0.8,1,1.2c0.2,0.3,0.3,0.7,0.1,0.9
		c-0.2,0.2-0.4,0.2-0.7,0.2c-0.8-0.1-1.5-0.2-2.3-0.5c-0.5-0.2-1.1-0.5-1.6-0.4c-0.6,0.1-1.2,0.8-1.9,0.6c-0.6-0.1-0.9-0.9-1.5-0.9
		c-0.4,0-0.6,0.2-0.9,0.4c-0.8,0.5-1.8,0.6-2.7,0.4s-1.8-0.5-2.8-0.6c-0.5-0.1-1.1-0.1-1.5,0.2c-0.2,0.2-0.5,0.5-0.8,0.5
		c-0.5,0-0.8-0.8-1.4-0.7c-0.4,0-0.6,0.5-0.9,0.8c-0.4,0.4-1,0.5-1.5,0.3s-1-0.5-1.4-0.9c-0.2-0.1-0.4-0.3-0.6-0.3
		c-0.5,0-0.7,0.6-0.9,1.1c-0.4-1.1-1.3-5.4-1.5-6.6"/>
</g>
<g id="Layer_2_00000108993938692663542250000014360695047614991258_">
	<g>
		
			<image style="overflow:visible;opacity:0.75;" width="26" height="23" xlink:href="DFF267CF.png"  transform="matrix(1 0 0 1 1.1644 3.1068)">
		</image>
		<g>
			<g>
				<path class="st6" d="M13.5,7.3c0,0-1.1-2.6-1.4-2C9.9,8.8,8.5,6.8,9.3,6.8C11,6.8,5.9,7.1,5,7.6C4.7,7.7,2.3,4,2.7,5.6
					C2.9,6.4,3,7.3,3,8.2v11.1C3,19.7,3.3,20,3.8,20h9.8"/>
				<path class="st6" d="M10.8,7.8c0,0,0.5-0.2,0.9,0.5c2.2,3.5,5.4,0.9,4.6,0.9c-1.7,0,1.2-0.7,2.1-0.3c0.3,0.2,0.7-1.1,0.2,0.5
					c-0.2,0.8,1.1-2.1,1.1-1.3l0.1,8.5c0,0.4,1,2.5,0.5,2.5l-8,0.8"/>
			</g>
		</g>
	</g>
	<path class="st7" d="M13.5,0.9L13.5,0.9C13.5,0.9,13.4,0.9,13.5,0.9c-0.1-0.1-0.1-0.1-0.1-0.2c0,0,0,0,0,0c0,0,0,0,0-0.1
		c0,0,0,0-0.1-0.1c0,0,0,0,0,0s0,0,0,0c-0.1-0.1-0.1-0.1-0.2-0.1c-0.1,0-0.1-0.1-0.2,0c-0.1,0-0.1,0-0.2,0c-0.1,0-0.1,0.1-0.2,0.1
		c0,0-0.1,0.1-0.1,0.1c0,0.1-0.1,0.1-0.1,0.2c0,0,0,0,0,0c0,0.1-0.1,0.1-0.1,0.1c0,0,0,0.1,0,0.1v0l0,0c0,0,0,0.1,0,0.1c0,0,0,0,0,0
		l0,0c0,0-0.1,0.1-0.1,0.1c0,0.1-0.1,0.1-0.1,0.2c0,0.1,0,0.1,0,0.2c0,0.1,0.1,0.1,0.1,0.2c0,0,0.1,0.1,0.1,0.1c0,0,0.1,0,0.1,0
		c0.1,0,0.2,0,0.3,0c0,0,0.1,0,0.1,0c0,0,0,0,0.1,0c0.2,0,0.4-0.2,0.5-0.4l0,0c0-0.1,0.1-0.1,0.1-0.2c0,0,0,0,0,0c0,0,0,0,0,0
		c0.1-0.1,0.1-0.1,0.1-0.2c0,0,0-0.1,0-0.1C13.6,1.1,13.5,1,13.5,0.9L13.5,0.9z"/>
</g>
<g id="Layer_1_00000176042995009195181050000004271230346999215751_">
	<g>
		<path class="st6" d="M13.2,0.8c0,0-0.7,0.7-1.1,1.3C10,5.6,8.5,6.8,9.3,6.8c1.7,0-6.5-6.1-7.4-5.7C1.6,1.3,2.2,3.9,2.7,5.6
			C2.9,6.4,3,7.3,3,8.2v11.1c0,0.4,0.3,0.7,0.8,0.7h11.8"/>
		<path class="st6" d="M12.8,0.8c0,0,0.7,0.7,1.1,1.3c2.1,3.5,3.7,4.7,2.9,4.7c-1.7,0,6.5-6.1,7.4-5.7c0.3,0.2-0.3,2.8-0.7,4.4
			C23.1,6.4,23,7.3,23,8.2v11.1c0,0.4-0.3,0.7-0.8,0.7h-9.7"/>
	</g>
	<ellipse class="st8" cx="6.3" cy="12.6" rx="1.5" ry="1.8"/>
	<ellipse class="st9" cx="13.5" cy="12.6" rx="2.1" ry="2.4"/>
	<ellipse class="st10" cx="19.9" cy="12.6" rx="1.5" ry="1.8"/>
	<ellipse class="st11" cx="22.5" cy="11.4" rx="2.1" ry="2.2"/>
	<path class="st7" d="M13.5,0.9L13.5,0.9C13.5,0.9,13.4,0.8,13.5,0.9c-0.1-0.1-0.1-0.1-0.1-0.2c0,0,0,0,0,0c0,0,0,0,0-0.1
		c0,0,0,0-0.1-0.1c0,0,0,0,0,0s0,0,0,0c-0.1-0.1-0.1-0.1-0.2-0.1c-0.1,0-0.1-0.1-0.2,0c-0.1,0-0.1,0-0.2,0c-0.1,0-0.1,0.1-0.2,0.1
		c0,0-0.1,0.1-0.1,0.1c0,0.1-0.1,0.1-0.1,0.2c0,0,0,0,0,0c0,0.1-0.1,0.1-0.1,0.1c0,0,0,0.1,0,0.1v0l0,0c0,0,0,0.1,0,0.1c0,0,0,0,0,0
		l0,0c0,0-0.1,0.1-0.1,0.1c0,0.1-0.1,0.1-0.1,0.2c0,0.1,0,0.1,0,0.2c0,0.1,0.1,0.1,0.1,0.2c0,0.1,0.1,0.1,0.1,0.1c0,0,0.1,0,0.1,0
		c0.1,0,0.2,0,0.3,0c0,0,0.1,0,0.1,0c0,0,0,0,0.1,0c0.2,0,0.4-0.2,0.5-0.4l0,0c0-0.1,0.1-0.1,0.1-0.2c0,0,0,0,0,0c0,0,0,0,0,0
		c0.1-0.1,0.1-0.1,0.1-0.2c0,0,0-0.1,0-0.1C13.6,1,13.5,1,13.5,0.9L13.5,0.9z"/>
</g>
</svg>
