<?xml version="1.0" encoding="UTF-8"?>
<svg xmlns="http://www.w3.org/2000/svg" xmlns:xlink="http://www.w3.org/1999/xlink" viewBox="0 0 28.25 26.8">
  <defs>
    <style>
      .cls-1 {
        fill: none;
      }

      .cls-1, .cls-2, .cls-3, .cls-4, .cls-5, .cls-6, .cls-7 {
        stroke: #231f20;
        stroke-miterlimit: 10;
      }

      .cls-8, .cls-3 {
        fill: #ed1c24;
      }

      .cls-8, .cls-9 {
        stroke-width: 0px;
      }

      .cls-2 {
        fill: #f9ed32;
      }

      .cls-10 {
        filter: url(#drop-shadow-1);
      }

      .cls-4 {
        fill: #a25288;
      }

      .cls-5 {
        fill: #39b54a;
      }

      .cls-9 {
        fill: #231f20;
      }

      .cls-6 {
        fill: #00aeef;
      }

      .cls-7 {
        fill: #488fcd;
      }
    </style>
    <filter id="drop-shadow-1" filterUnits="userSpaceOnUse">
      <feOffset dx="3" dy="2"/>
      <feGaussianBlur result="blur" stdDeviation="1"/>
      <feFlood flood-color="#231f20" flood-opacity=".75"/>
      <feComposite in2="blur" operator="in"/>
      <feComposite in="SourceGraphic"/>
    </filter>
  </defs>
  <g id="Layer_3" data-name="Layer 3">
    <path class="cls-8" d="m22.22,10.98l1.31,2.9c.37.82.75,1.67.79,2.57.01.31,0,.62.11.91.17.41.58.65.93.92.71.56,1.25,1.54.93,2.4-.14.38-.43.74-.36,1.14.06.34.36.56.61.78.41.35.75.77,1.03,1.23.17.28.3.67.09.92-.16.19-.44.2-.68.18-.78-.06-1.54-.24-2.27-.53-.52-.21-1.07-.48-1.62-.37-.65.14-1.21.81-1.86.64-.56-.15-.88-.9-1.46-.92-.35-.01-.64.25-.94.44-.8.51-1.81.56-2.74.41s-1.83-.46-2.76-.6c-.52-.08-1.09-.1-1.52.21-.25.18-.46.48-.77.5-.52.03-.84-.76-1.36-.72-.4.04-.58.53-.86.84-.38.41-1.01.47-1.53.3s-.97-.52-1.4-.86c-.18-.14-.38-.29-.61-.29-.49-.01-.74.59-.87,1.08-.4-1.15-1.27-5.43-1.53-6.63"/>
    <path class="cls-3" d="m22.22,10.98l1.31,2.9c.37.82.75,1.67.79,2.57.01.31,0,.62.11.91.17.41.58.65.93.92.71.56,1.25,1.54.93,2.4-.14.38-.43.74-.36,1.14.06.34.36.56.61.78.41.35.75.77,1.03,1.23.17.28.3.67.09.92-.16.19-.44.2-.68.18-.78-.06-1.54-.24-2.27-.53-.52-.21-1.07-.48-1.62-.37-.65.14-1.21.81-1.86.64-.56-.15-.88-.9-1.46-.92-.35-.01-.64.25-.94.44-.8.51-1.81.56-2.74.41s-1.83-.46-2.76-.6c-.52-.08-1.09-.1-1.52.21-.25.18-.46.48-.77.5-.52.03-.84-.76-1.36-.72-.4.04-.58.53-.86.84-.38.41-1.01.47-1.53.3s-.97-.52-1.4-.86c-.18-.14-.38-.29-.61-.29-.49-.01-.74.59-.87,1.08-.4-1.15-1.27-5.43-1.53-6.63"/>
    <path class="cls-1" d="m22.22,10.98l1.31,2.9c.37.82.75,1.67.79,2.57.01.31,0,.62.11.91.17.41.58.65.93.92.71.56,1.25,1.54.93,2.4-.14.38-.43.74-.36,1.14.06.34.36.56.61.78.41.35.75.77,1.03,1.23.17.28.3.67.09.92-.16.19-.44.2-.68.18-.78-.06-1.54-.24-2.27-.53-.52-.21-1.07-.48-1.62-.37-.65.14-1.21.81-1.86.64-.56-.15-.88-.9-1.46-.92-.35-.01-.64.25-.94.44-.8.51-1.81.56-2.74.41s-1.83-.46-2.76-.6c-.52-.08-1.09-.1-1.52.21-.25.18-.46.48-.77.5-.52.03-.84-.76-1.36-.72-.4.04-.58.53-.86.84-.38.41-1.01.47-1.53.3s-.97-.52-1.4-.86c-.18-.14-.38-.29-.61-.29-.49-.01-.74.59-.87,1.08-.4-1.15-1.27-5.43-1.53-6.63"/>
  </g>
  <g id="Layer_2" data-name="Layer 2">
    <g class="cls-10">
      <path class="cls-4" d="m12.31,6.95s-1.05-2.63-1.44-2c-2.15,3.47-3.59,1.5-2.77,1.5,1.69,0-3.36.28-4.25.73-.32.16-2.79-3.59-2.37-1.97.22.84.33,1.71.33,2.58v11.11c0,.38.34.68.75.68h9.75"/>
      <path class="cls-4" d="m9.62,7.41s.53-.17.92.46c2.15,3.47,5.44.92,4.62.92-1.69,0,1.16-.72,2.06-.27.32.16.67-1.12.25.5-.22.84,1.15-2.14,1.15-1.27l.08,8.5c0,.38.95,2.54.54,2.54l-8.03.79"/>
    </g>
    <path class="cls-9" d="m12.29.53s0,0,0,0c-.02-.02-.04-.05-.06-.07-.01-.03-.02-.06-.04-.09,0,0,0-.01-.01-.02-.01-.02-.03-.04-.04-.06-.01-.02-.03-.04-.05-.06,0,0-.01-.01-.02-.02-.01-.01-.03-.02-.04-.04-.05-.05-.1-.08-.16-.1-.06-.03-.12-.05-.19-.04-.07,0-.13.01-.19.04-.06.02-.12.05-.16.1-.03.03-.05.07-.08.1-.04.06-.05.14-.06.21,0,0,0,.01-.01.02-.03.05-.05.1-.07.15-.01.03-.03.07-.04.1,0,0,0,.02,0,.02,0,0,0,0,0,0,0,.04-.01.09-.02.13,0,.02,0,.03,0,.04,0,0,0,0,0,0-.04.04-.08.09-.1.14-.04.06-.06.12-.06.19-.01.07-.01.13,0,.2.02.07.05.12.09.17.04.05.08.1.14.13.04.02.08.03.12.05.09.02.18.02.27,0,.04-.02.08-.03.12-.05.02-.01.03-.04.05-.05.25,0,.4-.16.46-.35,0,0,0,0,0,0,.04-.06.06-.12.06-.19,0-.01,0-.02,0-.04,0,0,.01,0,.02-.01.06-.06.1-.14.13-.22,0-.04.01-.09.02-.13,0-.09-.02-.17-.07-.25Z"/>
  </g>
  <g id="Layer_1" data-name="Layer 1">
    <g>
      <path class="cls-4" d="m12.03.43s-.69.71-1.08,1.33c-2.15,3.47-3.68,4.67-2.86,4.67,1.69,0-6.46-6.14-7.36-5.68-.32.16.31,2.82.73,4.45.22.84.33,1.71.33,2.58v11.11c0,.38.34.68.75.68h11.83"/>
      <path class="cls-4" d="m11.58.43s.69.71,1.08,1.33c2.15,3.47,3.68,4.67,2.86,4.67-1.69,0,6.46-6.14,7.36-5.68.32.16-.31,2.82-.73,4.45-.22.84-.33,1.71-.33,2.58v11.11c0,.38-.34.68-.75.68h-9.75"/>
    </g>
    <ellipse class="cls-7" cx="5.11" cy="12.25" rx="1.53" ry="1.77"/>
    <ellipse class="cls-5" cx="12.33" cy="12.18" rx="2.07" ry="2.38"/>
    <ellipse class="cls-6" cx="18.74" cy="12.25" rx="1.53" ry="1.77"/>
    <ellipse class="cls-2" cx="21.33" cy="10.98" rx="2.12" ry="2.19"/>
    <path class="cls-9" d="m12.29.51s0,0,0,0c-.02-.02-.04-.05-.06-.07-.01-.03-.02-.06-.04-.09,0,0,0-.01-.01-.02-.01-.02-.03-.04-.04-.06-.01-.02-.03-.04-.05-.06,0,0-.01-.01-.02-.02-.01-.01-.03-.02-.04-.04-.05-.05-.1-.08-.16-.1-.06-.03-.12-.05-.19-.04-.07,0-.13.01-.19.04-.06.02-.12.05-.16.1-.03.03-.05.07-.08.1-.04.06-.05.14-.06.21,0,0,0,.01-.01.02-.03.05-.05.1-.07.15-.01.03-.03.07-.04.1,0,0,0,.02,0,.02,0,0,0,0,0,0,0,.04-.01.09-.02.13,0,.02,0,.03,0,.04,0,0,0,0,0,0-.04.04-.08.09-.1.14-.04.06-.06.12-.06.19-.01.07-.01.13,0,.2.02.07.05.12.09.17.04.05.08.1.14.13.04.02.08.03.12.05.09.02.18.02.27,0,.04-.02.08-.03.12-.05.02-.01.03-.04.05-.05.25,0,.4-.16.46-.35,0,0,0,0,0,0,.04-.06.06-.12.06-.19,0-.01,0-.02,0-.04,0,0,.01,0,.02-.01.06-.06.1-.14.13-.22,0-.04.01-.09.02-.13,0-.09-.02-.17-.07-.25Z"/>
  </g>
</svg>