<?xml version="1.0" encoding="utf-8"?>
<!-- Generator: Adobe Illustrator 28.0.0, SVG Export Plug-In . SVG Version: 6.00 Build 0)  -->
<svg version="1.1" id="Layer_1" xmlns="http://www.w3.org/2000/svg" xmlns:xlink="http://www.w3.org/1999/xlink" x="0px" y="0px"
	 viewBox="0 0 113.1 27.4" style="enable-background:new 0 0 113.1 27.4;" xml:space="preserve">
<style type="text/css">
	.st0{fill:#EC2227;}
	.st1{fill:#EC2227;stroke:#231F20;stroke-miterlimit:10;}
	.st2{fill:none;stroke:#231F20;stroke-miterlimit:10;}
	.st3{fill:#A45388;stroke:#231F20;stroke-miterlimit:10;}
	.st4{fill:#231F20;}
	.st5{fill:#488FCC;stroke:#231F20;stroke-miterlimit:10;}
	.st6{fill:#3DB54A;stroke:#231F20;stroke-miterlimit:10;}
	.st7{fill:#2BACE2;stroke:#231F20;stroke-miterlimit:10;}
	.st8{fill:#F8ED33;stroke:#231F20;stroke-miterlimit:10;}
	.st9{enable-background:new    ;}
	.st10{fill:#E8D6E9;}
</style>
<g id="Layer_3">
	<path class="st0" d="M22.1,11.1l1.3,2.9c0.4,0.8,0.8,1.7,0.8,2.6c0,0.3,0,0.6,0.1,0.9c0.2,0.4,0.6,0.6,0.9,0.9
		c0.7,0.6,1.2,1.5,0.9,2.4c-0.1,0.4-0.4,0.7-0.4,1.1c0.1,0.3,0.4,0.6,0.6,0.8c0.4,0.4,0.8,0.8,1,1.2c0.2,0.3,0.3,0.7,0.1,0.9
		C27.4,25,27.1,25,26.8,25c-0.8-0.1-1.5-0.2-2.3-0.5c-0.5-0.2-1.1-0.5-1.6-0.4c-0.6,0.1-1.2,0.8-1.9,0.6c-0.6-0.1-0.9-0.9-1.5-0.9
		c-0.4,0-0.6,0.2-0.9,0.4c-0.8,0.5-1.8,0.6-2.7,0.4s-1.8-0.5-2.8-0.6c-0.5-0.1-1.1-0.1-1.5,0.2c-0.2,0.2-0.5,0.5-0.8,0.5
		c-0.5,0-0.8-0.8-1.4-0.7c-0.4,0-0.6,0.5-0.9,0.8c-0.4,0.4-1,0.5-1.5,0.3s-1-0.5-1.4-0.9c-0.2-0.1-0.4-0.3-0.6-0.3
		c-0.5,0-0.7,0.6-0.9,1.1C3.9,24,3,19.7,2.7,18.5"/>
	<path class="st1" d="M22.1,11.1l1.3,2.9c0.4,0.8,0.8,1.7,0.8,2.6c0,0.3,0,0.6,0.1,0.9c0.2,0.4,0.6,0.6,0.9,0.9
		c0.7,0.6,1.2,1.5,0.9,2.4c-0.1,0.4-0.4,0.7-0.4,1.1c0.1,0.3,0.4,0.6,0.6,0.8c0.4,0.4,0.8,0.8,1,1.2c0.2,0.3,0.3,0.7,0.1,0.9
		C27.4,25,27.1,25,26.8,25c-0.8-0.1-1.5-0.2-2.3-0.5c-0.5-0.2-1.1-0.5-1.6-0.4c-0.6,0.1-1.2,0.8-1.9,0.6c-0.6-0.1-0.9-0.9-1.5-0.9
		c-0.4,0-0.6,0.2-0.9,0.4c-0.8,0.5-1.8,0.6-2.7,0.4s-1.8-0.5-2.8-0.6c-0.5-0.1-1.1-0.1-1.5,0.2c-0.2,0.2-0.5,0.5-0.8,0.5
		c-0.5,0-0.8-0.8-1.4-0.7c-0.4,0-0.6,0.5-0.9,0.8c-0.4,0.4-1,0.5-1.5,0.3s-1-0.5-1.4-0.9c-0.2-0.1-0.4-0.3-0.6-0.3
		c-0.5,0-0.7,0.6-0.9,1.1C3.9,24,3,19.7,2.7,18.5"/>
	<path class="st2" d="M22.1,11.1l1.3,2.9c0.4,0.8,0.8,1.7,0.8,2.6c0,0.3,0,0.6,0.1,0.9c0.2,0.4,0.6,0.6,0.9,0.9
		c0.7,0.6,1.2,1.5,0.9,2.4c-0.1,0.4-0.4,0.7-0.4,1.1c0.1,0.3,0.4,0.6,0.6,0.8c0.4,0.4,0.8,0.8,1,1.2c0.2,0.3,0.3,0.7,0.1,0.9
		C27.4,25,27.1,25,26.8,25c-0.8-0.1-1.5-0.2-2.3-0.5c-0.5-0.2-1.1-0.5-1.6-0.4c-0.6,0.1-1.2,0.8-1.9,0.6c-0.6-0.1-0.9-0.9-1.5-0.9
		c-0.4,0-0.6,0.2-0.9,0.4c-0.8,0.5-1.8,0.6-2.7,0.4s-1.8-0.5-2.8-0.6c-0.5-0.1-1.1-0.1-1.5,0.2c-0.2,0.2-0.5,0.5-0.8,0.5
		c-0.5,0-0.8-0.8-1.4-0.7c-0.4,0-0.6,0.5-0.9,0.8c-0.4,0.4-1,0.5-1.5,0.3s-1-0.5-1.4-0.9c-0.2-0.1-0.4-0.3-0.6-0.3
		c-0.5,0-0.7,0.6-0.9,1.1C3.9,24,3,19.7,2.7,18.5"/>
</g>
<g id="Layer_2_00000020379280497755889900000013743387348281068969_">
	<g>
		<path class="st3" d="M12.2,7c0,0-1.1-2.6-1.4-2C8.6,8.5,7.1,6.5,8,6.5c1.7,0-3.4,0.3-4.2,0.7c-0.3,0.2-2.8-3.6-2.4-2
			C1.6,6.1,1.7,7,1.7,7.9V19c0,0.4,0.3,0.7,0.7,0.7h9.8"/>
		<path class="st3" d="M9.5,7.5c0,0,0.5-0.2,0.9,0.5c2.1,3.5,5.4,0.9,4.6,0.9c-1.7,0,1.2-0.7,2.1-0.3c0.3,0.2,0.7-1.1,0.2,0.5
			c-0.2,0.8,1.1-2.1,1.1-1.3l0.1,8.5c0,0.4,1,2.5,0.5,2.5l-8,0.8"/>
	</g>
	<path class="st4" d="M12.1,0.6L12.1,0.6C12.1,0.6,12.1,0.6,12.1,0.6c-0.1-0.1-0.1-0.1-0.1-0.2c0,0,0,0,0,0s0,0,0-0.1s0,0-0.1-0.1
		c0,0,0,0,0,0c0,0,0,0,0,0c-0.1,0-0.1-0.1-0.2-0.1c-0.1,0-0.1,0-0.2,0c-0.1,0-0.1,0-0.2,0c-0.1,0-0.1,0-0.2,0.1c0,0-0.1,0.1-0.1,0.1
		c0,0.1-0.1,0.1-0.1,0.2c0,0,0,0,0,0C11,0.6,11,0.7,11,0.7c0,0,0,0.1,0,0.1v0l0,0c0,0,0,0.1,0,0.1v0l0,0c0,0-0.1,0.1-0.1,0.1
		c0,0.1-0.1,0.1-0.1,0.2c0,0.1,0,0.1,0,0.2c0,0.1,0.1,0.1,0.1,0.2s0.1,0.1,0.1,0.1c0,0,0.1,0,0.1,0c0.1,0,0.2,0,0.3,0
		c0,0,0.1,0,0.1,0c0,0,0,0,0.1,0c0.2,0,0.4-0.2,0.5-0.4l0,0c0-0.1,0.1-0.1,0.1-0.2v0c0,0,0,0,0,0c0.1-0.1,0.1-0.1,0.1-0.2
		c0,0,0-0.1,0-0.1C12.2,0.8,12.2,0.7,12.1,0.6L12.1,0.6L12.1,0.6z"/>
</g>
<g id="Layer_1-2">
	<g>
		<path class="st3" d="M11.9,0.5c0,0-0.7,0.7-1.1,1.3C8.7,5.3,7.1,6.5,8,6.5c1.7,0-6.5-6.1-7.4-5.7C0.3,1,0.9,3.7,1.3,5.3
			C1.5,6.1,1.6,7,1.6,7.9V19c0,0.4,0.3,0.7,0.8,0.7h11.8"/>
		<path class="st3" d="M11.4,0.5c0,0,0.7,0.7,1.1,1.3c2.2,3.5,3.7,4.7,2.9,4.7c-1.7,0,6.5-6.1,7.4-5.7C23.1,1,22.4,3.7,22,5.3
			c-0.2,0.8-0.3,1.7-0.3,2.6V19c0,0.4-0.3,0.7-0.8,0.7h-9.8"/>
	</g>
	<ellipse class="st5" cx="5" cy="12.3" rx="1.5" ry="1.8"/>
	<ellipse class="st6" cx="12.2" cy="12.3" rx="2.1" ry="2.4"/>
	<ellipse class="st7" cx="18.6" cy="12.3" rx="1.5" ry="1.8"/>
	<ellipse class="st8" cx="21.2" cy="11.1" rx="2.1" ry="2.2"/>
	<path class="st4" d="M12.1,0.6L12.1,0.6C12.1,0.6,12.1,0.6,12.1,0.6c-0.1-0.1-0.1-0.1-0.1-0.2c0,0,0,0,0,0s0,0,0-0.1s0,0-0.1-0.1
		c0,0,0,0,0,0c0,0,0,0,0,0c-0.1,0-0.1-0.1-0.2-0.1c-0.1,0-0.1,0-0.2,0c-0.1,0-0.1,0-0.2,0c-0.1,0-0.1,0-0.2,0.1c0,0-0.1,0.1-0.1,0.1
		c0,0.1-0.1,0.1-0.1,0.2c0,0,0,0,0,0C11,0.6,11,0.7,11,0.7c0,0,0,0.1,0,0.1v0l0,0c0,0,0,0.1,0,0.1v0l0,0c0,0-0.1,0.1-0.1,0.1
		c0,0.1-0.1,0.1-0.1,0.2c0,0.1,0,0.1,0,0.2c0,0.1,0.1,0.1,0.1,0.2s0.1,0.1,0.1,0.1c0,0,0.1,0,0.1,0c0.1,0,0.2,0,0.3,0
		c0,0,0.1,0,0.1,0c0,0,0,0,0.1,0c0.2,0,0.4-0.2,0.5-0.4l0,0c0-0.1,0.1-0.1,0.1-0.2v0c0,0,0,0,0,0c0.1-0.1,0.1-0.1,0.1-0.2
		c0,0,0-0.1,0-0.1C12.2,0.8,12.2,0.7,12.1,0.6L12.1,0.6L12.1,0.6z"/>
</g>
<g class="st9">
	<path class="st10" d="M37.7,2c0.5,0.2,0.8,0.5,1.1,0.8c0.3,0.4,0.4,0.8,0.4,1.3c0,0.4-0.1,0.9-0.3,1.2c-0.2,0.4-0.5,0.7-0.9,1
		c-0.4,0.3-0.8,0.6-1.5,1c-0.3,0.2-0.6,0.4-0.8,0.6h3.6v2h-6.9V9.3c0-0.4,0.1-0.8,0.3-1.1c0.2-0.3,0.5-0.6,0.9-1
		c0.4-0.3,0.9-0.8,1.7-1.3c0.6-0.4,1-0.8,1.2-1c0.2-0.2,0.3-0.5,0.3-0.7c0-0.2-0.1-0.4-0.3-0.6s-0.4-0.2-0.8-0.2
		c-0.4,0-0.6,0.1-0.9,0.3c-0.2,0.2-0.3,0.5-0.3,0.8v0.2h-2.1c0-0.1,0-0.1,0-0.3c0-0.8,0.3-1.5,0.9-2C34,2,34.9,1.7,36,1.7
		C36.7,1.7,37.2,1.8,37.7,2z"/>
	<path class="st10" d="M44.3,3.2c-0.3,0.6-0.7,1.2-1.2,1.8c-0.5,0.6-0.9,1.1-1.3,1.5h2.4V4.8c0.2-0.3,0.5-0.7,0.8-1.2
		c0.3-0.5,0.4-0.8,0.5-1.1h1v4h1.2v1.7h-1.2v1.6h-2.3V8.2h-4V6.5c0.4-0.6,0.9-1.3,1.3-2.2c0.4-0.9,0.8-1.7,1-2.6h2.4
		C44.8,2.1,44.6,2.6,44.3,3.2z"/>
	<path class="st10" d="M53.3,6.1c-0.5,1-0.8,2-0.8,3.1v0.7h-2.7c0-1,0.2-2.1,0.7-3.1c0.5-1,1.1-2,1.9-2.9h-4v-2h7v1.1
		C54.5,4,53.8,5.1,53.3,6.1z"/>
	<path class="st10" d="M62.7,2.8c0.5,0.7,0.8,1.7,0.8,3.1s-0.3,2.4-0.8,3.1C62.2,9.6,61.3,10,60,10c-1.3,0-2.2-0.4-2.7-1.1
		c-0.5-0.7-0.8-1.7-0.8-3.1s0.3-2.4,0.8-3.1c0.5-0.7,1.4-1.1,2.7-1.1C61.3,1.7,62.2,2.1,62.7,2.8z M59.1,3.8
		c-0.2,0.3-0.3,0.8-0.3,1.5v1.1c0,0.7,0.1,1.2,0.3,1.5c0.2,0.3,0.5,0.5,0.9,0.5c0.4,0,0.7-0.2,0.9-0.5c0.2-0.3,0.3-0.8,0.3-1.5V5.3
		c0-0.7-0.1-1.2-0.3-1.5c-0.2-0.3-0.5-0.5-0.9-0.5C59.6,3.3,59.3,3.5,59.1,3.8z"/>
	<path class="st10" d="M69.8,2c0.5,0.2,0.8,0.5,1.1,0.8s0.4,0.8,0.4,1.3c0,0.4-0.1,0.9-0.3,1.2c-0.2,0.4-0.5,0.7-0.9,1
		c-0.4,0.3-0.8,0.6-1.5,1c-0.3,0.2-0.6,0.4-0.8,0.6h3.6v2h-6.9V9.3c0-0.4,0.1-0.8,0.3-1.1c0.2-0.3,0.5-0.6,0.9-1
		c0.4-0.3,0.9-0.8,1.7-1.3c0.6-0.4,1-0.8,1.2-1C68.8,4.7,69,4.4,69,4.2c0-0.2-0.1-0.4-0.3-0.6s-0.4-0.2-0.8-0.2
		c-0.4,0-0.6,0.1-0.9,0.3c-0.2,0.2-0.3,0.5-0.3,0.8v0.2h-2.1c0-0.1,0-0.1,0-0.3c0-0.8,0.3-1.5,0.9-2s1.5-0.7,2.6-0.7
		C68.8,1.7,69.4,1.8,69.8,2z"/>
	<path class="st10" d="M84.4,5.6c-0.3,0.4-0.7,0.7-1.2,0.9L85,9.8h-3l-1.5-2.9h-1v2.9h-2.7v-8H82c0.6,0,1.1,0.1,1.5,0.3
		c0.4,0.2,0.7,0.5,1,0.9c0.2,0.4,0.3,0.8,0.3,1.2C84.8,4.8,84.6,5.2,84.4,5.6z M81.9,3.9c-0.1-0.1-0.3-0.2-0.5-0.2h-1.7v1.5h1.7
		c0.2,0,0.4-0.1,0.5-0.2c0.1-0.1,0.2-0.3,0.2-0.5S82,4,81.9,3.9z"/>
	<path class="st10" d="M91.8,4.4c0.6,0.5,0.9,1.3,0.9,2.4v0.4h-4.8c0,0.4,0.1,0.8,0.3,1c0.2,0.2,0.5,0.3,1,0.3
		c0.4,0,0.7-0.1,0.9-0.2c0.2-0.2,0.3-0.4,0.3-0.6h2.3c0,0.7-0.3,1.3-0.9,1.7S90.4,10,89.2,10c-1.2,0-2.1-0.3-2.7-0.8s-1-1.3-1-2.4
		c0-1,0.3-1.8,1-2.4c0.6-0.5,1.5-0.8,2.6-0.8C90.3,3.6,91.2,3.8,91.8,4.4z M87.9,6.1h2.3c0-0.3-0.1-0.6-0.3-0.8
		c-0.2-0.2-0.5-0.3-0.8-0.3C88.4,5.1,88,5.4,87.9,6.1z"/>
	<path class="st10" d="M100.9,3.7c-0.2,0.3-0.6,0.4-1.1,0.6c0.2,0.2,0.4,0.4,0.5,0.6s0.2,0.5,0.2,0.7c0,0.6-0.3,1.1-0.8,1.5
		s-1.1,0.5-1.9,0.5H97c-0.5,0-0.8,0.1-0.8,0.3c0,0.1,0.1,0.2,0.2,0.3c0.1,0.1,0.3,0.1,0.6,0.1h2.2c0.7,0,1.2,0.2,1.6,0.5
		s0.5,0.8,0.5,1.4c0,0.4-0.1,0.8-0.4,1.1c-0.2,0.3-0.6,0.6-1,0.7c-0.4,0.2-0.9,0.2-1.3,0.2h-3.5c-0.3,0-0.6-0.1-0.8-0.2
		c-0.2-0.1-0.4-0.3-0.6-0.5c-0.1-0.2-0.2-0.5-0.2-0.8c0-0.3,0.1-0.6,0.3-0.8c0.2-0.2,0.4-0.4,0.7-0.5c-0.2-0.1-0.3-0.3-0.5-0.5
		c-0.1-0.2-0.2-0.4-0.2-0.6c0-0.3,0.1-0.6,0.3-0.8c0.2-0.2,0.5-0.4,0.9-0.5c-0.3-0.2-0.6-0.4-0.7-0.7c-0.2-0.3-0.3-0.5-0.3-0.8
		c0-0.7,0.3-1.2,0.9-1.5c0.6-0.3,1.4-0.5,2.4-0.5c0.4,0,0.8,0,1,0.1C98.8,3.4,99,3.2,99.2,3s0.2-0.3,0.2-0.4h2
		C101.3,3.1,101.2,3.4,100.9,3.7z M95.9,10c-0.1,0.1-0.2,0.2-0.2,0.4s0.1,0.3,0.2,0.4c0.1,0.1,0.3,0.2,0.4,0.2h1.9
		c0.2,0,0.3-0.1,0.5-0.2c0.1-0.1,0.2-0.2,0.2-0.4s-0.1-0.3-0.2-0.4c-0.1-0.1-0.3-0.2-0.5-0.2h-1.9C96.2,9.8,96.1,9.9,95.9,10z
		 M96.7,5c-0.2,0.1-0.3,0.3-0.3,0.6c0,0.3,0.1,0.4,0.2,0.6s0.4,0.2,0.7,0.2s0.5-0.1,0.7-0.2c0.2-0.1,0.2-0.3,0.2-0.6S98.2,5.1,98,5
		c-0.2-0.1-0.4-0.2-0.7-0.2C97.1,4.8,96.8,4.9,96.7,5z"/>
	<path class="st10" d="M107.7,4.1c0.6,0.3,0.9,0.8,0.9,1.5V8c0,0.1,0,0.2,0.1,0.3s0.2,0.1,0.3,0.1h0.4v1.3c0,0-0.1,0-0.2,0.1
		c-0.1,0-0.2,0.1-0.4,0.1s-0.4,0.1-0.6,0.1c-0.5,0-0.8-0.1-1.1-0.2c-0.3-0.1-0.5-0.3-0.6-0.6c-0.3,0.2-0.6,0.4-1,0.6
		c-0.4,0.1-0.8,0.2-1.3,0.2c-1.5,0-2.2-0.6-2.2-1.7c0-0.6,0.2-1,0.5-1.4c0.3-0.3,0.8-0.5,1.4-0.6c0.6-0.1,1.4-0.2,2.5-0.2V5.8
		c0-0.2-0.1-0.4-0.3-0.5s-0.4-0.2-0.7-0.2c-0.2,0-0.5,0-0.6,0.1s-0.3,0.2-0.3,0.4v0H102c0,0,0-0.1,0-0.2c0-0.6,0.3-1,0.9-1.4
		c0.6-0.3,1.4-0.5,2.5-0.5C106.3,3.6,107.1,3.7,107.7,4.1z M104.7,7.4c-0.3,0.1-0.5,0.3-0.5,0.6c0,0.4,0.3,0.6,0.8,0.6
		c0.3,0,0.6-0.1,0.8-0.2c0.2-0.2,0.4-0.4,0.4-0.6V7.2C105.5,7.2,105,7.2,104.7,7.4z"/>
	<path class="st10" d="M110.3,9.8V1.4h2.4v8.4H110.3z"/>
</g>
<g class="st9">
	<path class="st10" d="M40.2,19.5c-0.3,0.4-0.7,0.7-1.2,0.9l1.8,3.3h-3l-1.5-2.9h-1v2.9h-2.7v-8h5.1c0.6,0,1.1,0.1,1.5,0.3
		c0.4,0.2,0.7,0.5,1,0.9c0.2,0.4,0.3,0.8,0.3,1.2C40.6,18.7,40.5,19.1,40.2,19.5z M37.7,17.8c-0.1-0.1-0.3-0.2-0.5-0.2h-1.7v1.5h1.7
		c0.2,0,0.4-0.1,0.5-0.2s0.2-0.3,0.2-0.5C37.9,18.1,37.8,17.9,37.7,17.8z"/>
	<path class="st10" d="M47.5,18.3c0.6,0.5,1,1.3,1,2.4c0,1-0.3,1.8-1,2.4c-0.6,0.5-1.5,0.8-2.6,0.8c-1.1,0-2-0.3-2.6-0.8
		c-0.6-0.5-1-1.3-1-2.4s0.3-1.8,1-2.4s1.5-0.8,2.6-0.8C46,17.5,46.9,17.7,47.5,18.3z M43.7,20.3V21c0,0.9,0.4,1.3,1.2,1.3
		c0.8,0,1.2-0.4,1.2-1.3v-0.7c0-0.9-0.4-1.3-1.2-1.3C44.1,19,43.7,19.5,43.7,20.3z"/>
	<path class="st10" d="M53.9,17.5c0.9,0,1.5,0.3,2,0.8c0.5,0.5,0.7,1.3,0.7,2.4c0,1.1-0.2,1.9-0.7,2.4c-0.5,0.5-1.1,0.8-2,0.8
		c-0.9,0-1.6-0.3-2-1l-0.2,0.9h-2v-8.4h2.4v2.8C52.5,17.7,53.1,17.5,53.9,17.5z M52.3,19.5c-0.2,0.2-0.3,0.6-0.3,0.9v0.4
		c0,0.4,0.1,0.7,0.3,0.9s0.4,0.4,0.8,0.4c0.7,0,1-0.4,1-1.2v-0.6c0-0.8-0.3-1.2-1-1.2C52.8,19.2,52.5,19.3,52.3,19.5z"/>
	<path class="st10" d="M63.6,18.3c0.6,0.5,1,1.3,1,2.4c0,1-0.3,1.8-1,2.4c-0.6,0.5-1.5,0.8-2.6,0.8c-1.1,0-2-0.3-2.6-0.8
		c-0.6-0.5-1-1.3-1-2.4s0.3-1.8,1-2.4c0.6-0.5,1.5-0.8,2.6-0.8C62.1,17.5,63,17.7,63.6,18.3z M59.8,20.3V21c0,0.9,0.4,1.3,1.2,1.3
		c0.8,0,1.2-0.4,1.2-1.3v-0.7c0-0.9-0.4-1.3-1.2-1.3C60.2,19,59.8,19.5,59.8,20.3z"/>
	<path class="st10" d="M70,17.6v1.6h-1.3v2.3c0,0.3,0,0.5,0.1,0.6c0.1,0.1,0.3,0.2,0.5,0.2H70v1.4c-0.2,0.1-0.4,0.1-0.7,0.2
		c-0.3,0-0.6,0.1-0.8,0.1c-0.7,0-1.2-0.1-1.6-0.4c-0.4-0.2-0.6-0.7-0.6-1.3v-3.1h-0.9v-1.6h1l0.5-1.9h1.8v1.9H70z"/>
	<path class="st10" d="M76.3,18c0.6,0.3,0.9,0.8,0.9,1.5h-2.2c0-0.2-0.1-0.4-0.3-0.5c-0.1-0.1-0.3-0.1-0.5-0.1
		c-0.6,0-0.9,0.1-0.9,0.4c0,0.1,0.1,0.3,0.3,0.3c0.2,0.1,0.5,0.1,1,0.2c0.6,0.1,1,0.2,1.4,0.3c0.4,0.1,0.7,0.3,1,0.6
		c0.3,0.3,0.4,0.6,0.4,1.1c0,0.8-0.3,1.3-0.9,1.7c-0.6,0.3-1.4,0.5-2.4,0.5c-0.6,0-1.1-0.1-1.6-0.2s-0.9-0.4-1.2-0.7
		c-0.3-0.3-0.5-0.7-0.5-1.2H73v0c0,0.3,0.1,0.4,0.3,0.5c0.2,0.1,0.5,0.2,0.7,0.2c0.7,0,1-0.2,1-0.5c0-0.2-0.1-0.3-0.3-0.3
		s-0.5-0.1-1-0.2c-0.6-0.1-1-0.2-1.4-0.3c-0.4-0.1-0.7-0.3-1-0.5c-0.3-0.3-0.4-0.6-0.4-1.1c0-0.7,0.3-1.3,0.9-1.6
		c0.6-0.3,1.4-0.5,2.3-0.5C74.9,17.5,75.7,17.6,76.3,18z"/>
</g>
</svg>
