<?xml version="1.0" encoding="utf-8"?>
<!-- Generator: Adobe Illustrator 28.0.0, SVG Export Plug-In . SVG Version: 6.00 Build 0)  -->
<svg version="1.1" id="Layer_1" xmlns="http://www.w3.org/2000/svg" xmlns:xlink="http://www.w3.org/1999/xlink" x="0px" y="0px"
	 viewBox="0 0 258.8 26.8" style="enable-background:new 0 0 258.8 26.8;" xml:space="preserve">
<style type="text/css">
	.st0{enable-background:new;}
	.st1{fill:#E8D6E9;}
	.st2{fill:#ED1C24;}
	.st3{fill:#ED1C24;stroke:#231F20;stroke-miterlimit:10;}
	.st4{fill:none;stroke:#231F20;stroke-miterlimit:10;}
	.st5{fill:#A25288;stroke:#231F20;stroke-miterlimit:10;}
	.st6{fill:#231F20;}
	.st7{fill:#488FCD;stroke:#231F20;stroke-miterlimit:10;}
	.st8{fill:#39B54A;stroke:#231F20;stroke-miterlimit:10;}
	.st9{fill:#00AEEF;stroke:#231F20;stroke-miterlimit:10;}
	.st10{fill:#F9ED32;stroke:#231F20;stroke-miterlimit:10;}
</style>
<g class="st0">
	<path class="st1" d="M42.4,4.9c0.8,0.4,1.5,0.9,1.9,1.6C44.7,7.2,45,7.9,45,8.8c0,0.8-0.2,1.6-0.6,2.2c-0.4,0.7-0.9,1.3-1.5,1.8
		c-0.6,0.5-1.4,1.1-2.5,1.9c-0.6,0.4-1.1,0.7-1.5,1h6.3v3.6H33.4v-1c0-0.8,0.2-1.4,0.5-2s0.8-1.2,1.5-1.8s1.6-1.4,2.9-2.4
		c1-0.8,1.7-1.4,2.1-1.9C40.8,9.7,41,9.4,41,8.9c0-0.4-0.1-0.8-0.4-1.1s-0.9-0.4-1.5-0.4c-0.6,0-1.1,0.2-1.5,0.6
		c-0.3,0.3-0.5,0.8-0.5,1.4v0.4h-3.7c0-0.1,0-0.3,0-0.5c0-1.5,0.5-2.8,1.6-3.7c1-0.9,2.6-1.3,4.6-1.3C40.7,4.3,41.6,4.5,42.4,4.9z"
		/>
	<path class="st1" d="M53.7,7.1c-0.6,1.1-1.2,2.2-2,3.3s-1.5,2-2.2,2.7h4.1V10c0.4-0.6,0.9-1.4,1.3-2.2c0.4-0.9,0.7-1.6,0.9-2.1h1.8
		v7.4h2v3.1h-2v3h-4v-3h-7V13c0.7-1.1,1.5-2.5,2.2-4s1.3-3.2,1.8-4.7h4.1C54.6,5.1,54.3,6,53.7,7.1z"/>
	<path class="st1" d="M69.3,12.3c-0.9,1.8-1.4,3.8-1.4,5.7v1.3h-4.6c0-1.9,0.4-3.9,1.2-5.7c0.8-1.9,1.9-3.6,3.3-5.3h-6.9V4.6h12v1.9
		C71.5,8.6,70.2,10.5,69.3,12.3z"/>
	<path class="st1" d="M85.5,6.3c0.9,1.3,1.4,3.2,1.4,5.7s-0.5,4.4-1.4,5.7c-0.9,1.3-2.5,2-4.7,2c-2.2,0-3.8-0.7-4.7-2
		s-1.4-3.2-1.4-5.7s0.5-4.4,1.4-5.7s2.5-2,4.7-2C83.1,4.3,84.6,5,85.5,6.3z M79.3,8.1c-0.3,0.6-0.5,1.5-0.5,2.8V13
		c0,1.3,0.2,2.3,0.5,2.8c0.3,0.6,0.8,0.9,1.5,0.9c0.7,0,1.2-0.3,1.5-0.9c0.3-0.6,0.4-1.5,0.4-2.8v-2.1c0-1.3-0.1-2.3-0.4-2.8
		c-0.3-0.6-0.8-0.8-1.5-0.8C80.1,7.3,79.6,7.5,79.3,8.1z"/>
	<path class="st1" d="M97.9,4.9c0.8,0.4,1.5,0.9,1.9,1.6c0.5,0.7,0.7,1.4,0.7,2.3c0,0.8-0.2,1.6-0.6,2.2s-0.9,1.3-1.5,1.8
		s-1.4,1.1-2.5,1.9c-0.6,0.4-1.1,0.7-1.5,1h6.2v3.6H88.8v-1c0-0.8,0.2-1.4,0.5-2c0.3-0.6,0.8-1.2,1.5-1.8c0.7-0.6,1.6-1.4,2.9-2.4
		c1-0.8,1.7-1.4,2.1-1.9s0.6-0.8,0.6-1.3c0-0.4-0.1-0.8-0.4-1.1c-0.3-0.3-0.7-0.4-1.3-0.4S93.6,7.6,93.2,8s-0.5,0.9-0.5,1.5v0.4H89
		c0-0.1,0-0.3,0-0.5c0-1.5,0.5-2.8,1.6-3.7c1-0.9,2.6-1.3,4.6-1.3C96.1,4.3,97,4.5,97.9,4.9z"/>
	<path class="st1" d="M122.9,11.6c-0.5,0.7-1.2,1.3-2.1,1.6l3.2,6.2h-5.2l-2.5-5.4h-1.7v5.4H110V4.6h8.7c1,0,1.9,0.2,2.6,0.6
		s1.3,1,1.6,1.6c0.5,0.7,0.7,1.5,0.7,2.3C123.6,10,123.4,10.8,122.9,11.6z M118.6,8.3C118.3,8.1,118,8,117.7,8h-3v2.7h3
		c0.4,0,0.7-0.1,0.9-0.4c0.2-0.3,0.4-0.6,0.4-1C118.9,8.9,118.8,8.6,118.6,8.3z"/>
	<path class="st1" d="M135.7,9.2c1.1,1,1.6,2.5,1.6,4.5v0.7h-8.2c0,0.8,0.2,1.4,0.5,1.8c0.4,0.4,0.9,0.6,1.7,0.6
		c0.7,0,1.2-0.2,1.5-0.5s0.5-0.7,0.5-1.2h4c0,1.4-0.5,2.4-1.5,3.2s-2.5,1.2-4.4,1.2c-2,0-3.6-0.5-4.7-1.5s-1.7-2.5-1.7-4.4
		s0.5-3.4,1.6-4.4s2.6-1.5,4.5-1.5C133.1,7.8,134.6,8.2,135.7,9.2z M129.1,12.4h4c0-0.6-0.2-1-0.5-1.4c-0.3-0.3-0.8-0.5-1.4-0.5
		C129.9,10.5,129.2,11.1,129.1,12.4z"/>
	<path class="st1" d="M151.5,7.9c-0.4,0.5-1.1,0.8-1.9,1c0.4,0.3,0.7,0.7,0.9,1.1c0.2,0.4,0.3,0.9,0.3,1.3c0,1.2-0.4,2.1-1.3,2.7
		c-0.9,0.6-2,0.9-3.3,0.9h-1.6c-0.9,0-1.3,0.2-1.3,0.6c0,0.2,0.1,0.4,0.3,0.5c0.2,0.1,0.5,0.2,1,0.2h3.7c1.2,0,2.1,0.3,2.8,1
		c0.6,0.7,0.9,1.5,0.9,2.6c0,0.8-0.2,1.5-0.6,2.1c-0.4,0.6-1,1-1.7,1.3s-1.5,0.4-2.3,0.4h-6.1c-0.5,0-1-0.1-1.4-0.4
		c-0.4-0.2-0.8-0.6-1-1s-0.4-0.9-0.4-1.4c0-0.6,0.2-1.1,0.5-1.5s0.7-0.8,1.2-1c-0.3-0.2-0.6-0.5-0.8-0.9c-0.2-0.3-0.3-0.7-0.3-1.1
		c0-0.6,0.2-1.1,0.6-1.5c0.4-0.4,0.9-0.8,1.5-0.9c-0.5-0.4-1-0.8-1.3-1.2s-0.5-1-0.5-1.5c0-1.3,0.5-2.3,1.5-2.8
		c1-0.6,2.4-0.8,4.1-0.8c0.7,0,1.4,0,1.8,0.1c0.7-0.4,1.1-0.8,1.3-1.2s0.3-0.6,0.3-0.8h3.4C152.1,6.8,151.9,7.4,151.5,7.9z
		 M142.9,19.6c-0.2,0.2-0.3,0.4-0.3,0.8s0.1,0.6,0.3,0.8c0.2,0.2,0.5,0.3,0.8,0.3h3.2c0.3,0,0.6-0.1,0.8-0.3
		c0.2-0.2,0.3-0.5,0.3-0.8s-0.1-0.6-0.3-0.8c-0.2-0.2-0.5-0.3-0.8-0.3h-3.3C143.3,19.3,143.1,19.4,142.9,19.6z M144.1,10.4
		c-0.3,0.2-0.4,0.6-0.4,1c0,0.5,0.1,0.8,0.4,1.1c0.3,0.2,0.7,0.4,1.2,0.4s0.9-0.1,1.2-0.4c0.3-0.2,0.4-0.6,0.4-1.1s-0.1-0.8-0.4-1.1
		c-0.3-0.2-0.7-0.4-1.2-0.4C144.8,10,144.4,10.1,144.1,10.4z"/>
	<path class="st1" d="M163.1,8.6c1.1,0.6,1.6,1.5,1.6,2.8v4.4c0,0.2,0.1,0.4,0.2,0.6c0.1,0.2,0.3,0.2,0.5,0.2h0.7v2.5
		c0,0-0.1,0.1-0.3,0.1c-0.2,0.1-0.4,0.1-0.7,0.2s-0.7,0.1-1.1,0.1c-0.8,0-1.5-0.1-2-0.4c-0.5-0.2-0.9-0.6-1.1-1
		c-0.5,0.4-1.1,0.8-1.8,1c-0.7,0.3-1.4,0.4-2.3,0.4c-2.6,0-3.9-1.1-3.9-3.2c0-1.1,0.3-1.9,0.9-2.5c0.6-0.6,1.4-1,2.5-1.2
		c1.1-0.2,2.5-0.3,4.2-0.3v-0.6c0-0.4-0.1-0.8-0.4-1c-0.3-0.2-0.7-0.3-1.2-0.3c-0.4,0-0.8,0.1-1.1,0.2c-0.3,0.2-0.5,0.4-0.5,0.7v0.1
		h-4.1c0-0.1,0-0.2,0-0.3c0-1.1,0.5-1.9,1.5-2.5s2.4-0.9,4.2-0.9C160.7,7.8,162.1,8.1,163.1,8.6z M158,14.8
		c-0.6,0.3-0.8,0.6-0.8,1.1c0,0.7,0.5,1.1,1.4,1.1c0.5,0,1-0.2,1.4-0.5s0.6-0.7,0.6-1.1v-1C159.4,14.4,158.5,14.5,158,14.8z"/>
	<path class="st1" d="M167.6,19.3V3.8h4.1v15.5H167.6z"/>
	<path class="st1" d="M194.5,11.6c-0.5,0.7-1.2,1.3-2.1,1.6l3.2,6.2h-5.2l-2.5-5.4h-1.7v5.4h-4.6V4.6h8.7c1,0,1.9,0.2,2.6,0.6
		c0.7,0.4,1.3,1,1.6,1.6c0.4,0.7,0.5,1.4,0.5,2.3C195.2,10,194.9,10.8,194.5,11.6z M190.1,8.3c-0.2-0.2-0.5-0.3-0.9-0.3h-3v2.7h3
		c0.4,0,0.7-0.1,0.9-0.4c0.2-0.3,0.4-0.6,0.4-1C190.5,8.9,190.4,8.6,190.1,8.3z"/>
	<path class="st1" d="M207.1,9.3c1.1,1,1.7,2.5,1.7,4.4s-0.6,3.4-1.7,4.4c-1.1,1-2.6,1.5-4.5,1.5s-3.4-0.5-4.5-1.5s-1.6-2.5-1.6-4.4
		s0.5-3.4,1.6-4.4s2.6-1.5,4.5-1.5C204.5,7.8,206,8.3,207.1,9.3z M200.6,13.1v1.2c0,1.6,0.7,2.4,2,2.4c1.4,0,2.1-0.8,2.1-2.4v-1.2
		c0-1.6-0.7-2.4-2.1-2.4C201.2,10.7,200.6,11.5,200.6,13.1z"/>
	<path class="st1" d="M218,7.8c1.5,0,2.6,0.5,3.4,1.5c0.8,1,1.2,2.5,1.2,4.4c0,2-0.4,3.4-1.2,4.4s-1.9,1.5-3.4,1.5s-2.7-0.6-3.5-1.9
		l-0.4,1.6h-3.4V3.8h4.1v5.3C215.7,8.2,216.7,7.8,218,7.8z M215.3,11.6c-0.3,0.4-0.5,1-0.5,1.7V14c0,0.7,0.2,1.3,0.5,1.7
		c0.3,0.4,0.8,0.7,1.4,0.7c1.2,0,1.8-0.7,1.8-2.2v-1.1c0-1.5-0.6-2.2-1.8-2.2C216.1,10.9,215.7,11.1,215.3,11.6z"/>
	<path class="st1" d="M234.8,9.3c1.1,1,1.7,2.5,1.7,4.4s-0.6,3.4-1.7,4.4c-1.1,1-2.6,1.5-4.5,1.5s-3.4-0.5-4.5-1.5s-1.6-2.5-1.6-4.4
		s0.5-3.4,1.6-4.4s2.6-1.5,4.5-1.5C232.2,7.8,233.7,8.3,234.8,9.3z M228.3,13.1v1.2c0,1.6,0.7,2.4,2,2.4c1.4,0,2.1-0.8,2.1-2.4v-1.2
		c0-1.6-0.7-2.4-2.1-2.4C228.9,10.7,228.3,11.5,228.3,13.1z"/>
	<path class="st1" d="M245.8,8v2.9h-2.3v4.3c0,0.5,0.1,0.9,0.2,1.1c0.2,0.2,0.5,0.4,0.9,0.4h1.2v2.5c-0.3,0.1-0.8,0.2-1.3,0.3
		s-1,0.1-1.4,0.1c-1.2,0-2.2-0.2-2.8-0.7c-0.7-0.5-1-1.2-1-2.3v-5.7h-1.5V8h1.7l0.9-3.4h3.1V8H245.8z"/>
	<path class="st1" d="M256.6,8.7c1,0.6,1.5,1.5,1.5,2.8h-3.8c0-0.4-0.2-0.7-0.5-0.9c-0.2-0.1-0.6-0.2-0.9-0.2c-1,0-1.5,0.2-1.5,0.7
		c0,0.3,0.2,0.5,0.5,0.6s0.9,0.2,1.7,0.4c1,0.1,1.8,0.3,2.4,0.5c0.7,0.2,1.2,0.5,1.7,1s0.7,1.2,0.7,2.1c0,1.4-0.5,2.5-1.6,3.1
		c-1,0.6-2.4,0.9-4.1,0.9c-1,0-1.9-0.1-2.7-0.4s-1.6-0.7-2.1-1.3c-0.5-0.6-0.8-1.3-0.8-2.2h3.8v0.1c0,0.5,0.2,0.8,0.6,1
		s0.8,0.3,1.2,0.3c1.1,0,1.7-0.3,1.7-0.8c0-0.3-0.2-0.5-0.5-0.6c-0.4-0.1-0.9-0.3-1.8-0.4c-1-0.2-1.8-0.4-2.4-0.6s-1.2-0.5-1.7-1
		s-0.7-1.1-0.7-2c0-1.4,0.5-2.4,1.5-3s2.3-0.9,4-0.9C254.4,7.8,255.6,8.1,256.6,8.7z"/>
</g>
<g id="Layer_3">
	<path class="st2" d="M21.7,11.4l1.3,2.9c0.4,0.8,0.8,1.7,0.8,2.6c0,0.3,0,0.6,0.1,0.9c0.2,0.4,0.6,0.6,0.9,0.9
		c0.7,0.6,1.2,1.5,0.9,2.4c-0.1,0.4-0.4,0.7-0.4,1.1c0.1,0.3,0.4,0.6,0.6,0.8c0.4,0.4,0.8,0.8,1,1.2c0.2,0.3,0.3,0.7,0.1,0.9
		c-0.2,0.2-0.4,0.2-0.7,0.2c-0.8-0.1-1.5-0.2-2.3-0.5c-0.5-0.2-1.1-0.5-1.6-0.4c-0.6,0.1-1.2,0.8-1.9,0.6c-0.6-0.1-0.9-0.9-1.5-0.9
		c-0.4,0-0.6,0.2-0.9,0.4c-0.8,0.5-1.8,0.6-2.7,0.4c-0.9-0.2-1.8-0.5-2.8-0.6c-0.5-0.1-1.1-0.1-1.5,0.2c-0.2,0.2-0.5,0.5-0.8,0.5
		c-0.5,0-0.8-0.8-1.4-0.7c-0.4,0-0.6,0.5-0.9,0.8c-0.4,0.4-1,0.5-1.5,0.3s-1-0.5-1.4-0.9c-0.2-0.1-0.4-0.3-0.6-0.3
		c-0.5,0-0.7,0.6-0.9,1.1c-0.4-1.1-1.3-5.4-1.5-6.6"/>
	<path class="st3" d="M21.7,11.4l1.3,2.9c0.4,0.8,0.8,1.7,0.8,2.6c0,0.3,0,0.6,0.1,0.9c0.2,0.4,0.6,0.6,0.9,0.9
		c0.7,0.6,1.2,1.5,0.9,2.4c-0.1,0.4-0.4,0.7-0.4,1.1c0.1,0.3,0.4,0.6,0.6,0.8c0.4,0.4,0.8,0.8,1,1.2c0.2,0.3,0.3,0.7,0.1,0.9
		c-0.2,0.2-0.4,0.2-0.7,0.2c-0.8-0.1-1.5-0.2-2.3-0.5c-0.5-0.2-1.1-0.5-1.6-0.4c-0.6,0.1-1.2,0.8-1.9,0.6c-0.6-0.1-0.9-0.9-1.5-0.9
		c-0.4,0-0.6,0.2-0.9,0.4c-0.8,0.5-1.8,0.6-2.7,0.4c-0.9-0.2-1.8-0.5-2.8-0.6c-0.5-0.1-1.1-0.1-1.5,0.2c-0.2,0.2-0.5,0.5-0.8,0.5
		c-0.5,0-0.8-0.8-1.4-0.7c-0.4,0-0.6,0.5-0.9,0.8c-0.4,0.4-1,0.5-1.5,0.3s-1-0.5-1.4-0.9c-0.2-0.1-0.4-0.3-0.6-0.3
		c-0.5,0-0.7,0.6-0.9,1.1c-0.4-1.1-1.3-5.4-1.5-6.6"/>
	<path class="st4" d="M21.7,11.4l1.3,2.9c0.4,0.8,0.8,1.7,0.8,2.6c0,0.3,0,0.6,0.1,0.9c0.2,0.4,0.6,0.6,0.9,0.9
		c0.7,0.6,1.2,1.5,0.9,2.4c-0.1,0.4-0.4,0.7-0.4,1.1c0.1,0.3,0.4,0.6,0.6,0.8c0.4,0.4,0.8,0.8,1,1.2c0.2,0.3,0.3,0.7,0.1,0.9
		c-0.2,0.2-0.4,0.2-0.7,0.2c-0.8-0.1-1.5-0.2-2.3-0.5c-0.5-0.2-1.1-0.5-1.6-0.4c-0.6,0.1-1.2,0.8-1.9,0.6c-0.6-0.1-0.9-0.9-1.5-0.9
		c-0.4,0-0.6,0.2-0.9,0.4c-0.8,0.5-1.8,0.6-2.7,0.4c-0.9-0.2-1.8-0.5-2.8-0.6c-0.5-0.1-1.1-0.1-1.5,0.2c-0.2,0.2-0.5,0.5-0.8,0.5
		c-0.5,0-0.8-0.8-1.4-0.7c-0.4,0-0.6,0.5-0.9,0.8c-0.4,0.4-1,0.5-1.5,0.3s-1-0.5-1.4-0.9c-0.2-0.1-0.4-0.3-0.6-0.3
		c-0.5,0-0.7,0.6-0.9,1.1c-0.4-1.1-1.3-5.4-1.5-6.6"/>
</g>
<g id="Layer_2_00000108993938692663542250000014360695047614991258_">
	<g>
		<g>
			<g>
				<path class="st5" d="M11.8,7.3c0,0-1.1-2.6-1.4-2C8.2,8.8,6.8,6.8,7.6,6.8c1.7,0-3.4,0.3-4.3,0.8C3,7.7,0.6,4,1,5.6
					c0.2,0.8,0.3,1.7,0.3,2.6v11.1c0,0.4,0.3,0.7,0.8,0.7h9.8"/>
				<path class="st5" d="M9.1,7.8c0,0,0.5-0.2,0.9,0.5c2.2,3.5,5.4,0.9,4.6,0.9c-1.7,0,1.2-0.7,2.1-0.3c0.3,0.2,0.7-1.1,0.2,0.5
					C16.7,10.2,18,7.3,18,8.1l0.1,8.5c0,0.4,1,2.5,0.5,2.5l-8,0.8"/>
			</g>
		</g>
	</g>
	<path class="st6" d="M11.8,0.9L11.8,0.9C11.8,0.9,11.7,0.9,11.8,0.9c-0.1-0.1-0.1-0.1-0.1-0.2l0,0c0,0,0,0,0-0.1c0,0,0,0-0.1-0.1
		l0,0l0,0c-0.1-0.1-0.1-0.1-0.2-0.1c-0.1,0-0.1-0.1-0.2,0c-0.1,0-0.1,0-0.2,0s-0.1,0.1-0.2,0.1l-0.1,0.1c0,0.1-0.1,0.1-0.1,0.2l0,0
		c0,0.1-0.1,0.1-0.1,0.1V1l0,0l0,0v0.1l0,0l0,0l-0.1,0.1c0,0.1-0.1,0.1-0.1,0.2s0,0.1,0,0.2s0.1,0.1,0.1,0.2l0.1,0.1h0.1
		c0.1,0,0.2,0,0.3,0H11c0,0,0,0,0.1,0c0.2,0,0.4-0.2,0.5-0.4l0,0c0-0.1,0.1-0.1,0.1-0.2l0,0l0,0c0.1-0.1,0.1-0.1,0.1-0.2V1
		C11.9,1.1,11.8,1,11.8,0.9L11.8,0.9z"/>
</g>
<g id="Layer_1_00000176042995009195181050000004271230346999215751_">
	<g>
		<path class="st5" d="M11.5,0.8c0,0-0.7,0.7-1.1,1.3C8.3,5.6,6.8,6.8,7.6,6.8c1.7,0-6.5-6.1-7.4-5.7C-0.1,1.3,0.5,3.9,1,5.6
			c0.2,0.8,0.3,1.7,0.3,2.6v11.1c0,0.4,0.3,0.7,0.8,0.7h11.8"/>
		<path class="st5" d="M11.1,0.8c0,0,0.7,0.7,1.1,1.3c2.1,3.5,3.7,4.7,2.9,4.7c-1.7,0,6.5-6.1,7.4-5.7c0.3,0.2-0.3,2.8-0.7,4.4
			c-0.4,0.9-0.5,1.8-0.5,2.7v11.1c0,0.4-0.3,0.7-0.8,0.7h-9.7"/>
	</g>
	<ellipse class="st7" cx="4.6" cy="12.6" rx="1.5" ry="1.8"/>
	<ellipse class="st8" cx="11.8" cy="12.6" rx="2.1" ry="2.4"/>
	<ellipse class="st9" cx="18.2" cy="12.6" rx="1.5" ry="1.8"/>
	<ellipse class="st10" cx="20.8" cy="11.4" rx="2.1" ry="2.2"/>
	<path class="st6" d="M11.8,0.9L11.8,0.9C11.8,0.9,11.7,0.8,11.8,0.9c-0.1-0.1-0.1-0.1-0.1-0.2l0,0c0,0,0,0,0-0.1c0,0,0,0-0.1-0.1
		l0,0l0,0c-0.1-0.1-0.1-0.1-0.2-0.1c-0.1,0-0.1-0.1-0.2,0c-0.1,0-0.1,0-0.2,0s-0.1,0.1-0.2,0.1l-0.1,0.1c0,0.1-0.1,0.1-0.1,0.2l0,0
		c0,0.1-0.1,0.1-0.1,0.1V1l0,0l0,0v0.1l0,0l0,0l-0.1,0.1c0,0.1-0.1,0.1-0.1,0.2s0,0.1,0,0.2s0.1,0.1,0.1,0.2s0.1,0.1,0.1,0.1h0.1
		c0.1,0,0.2,0,0.3,0H11c0,0,0,0,0.1,0c0.2,0,0.4-0.2,0.5-0.4l0,0c0-0.1,0.1-0.1,0.1-0.2l0,0l0,0c0.1-0.1,0.1-0.1,0.1-0.2V1
		C11.9,1,11.8,1,11.8,0.9L11.8,0.9z"/>
</g>
</svg>
